<?xml version="1.0" encoding="UTF-8"?>
<svg id="Capa_1" data-name="Capa 1" xmlns="http://www.w3.org/2000/svg" viewBox="0 0 64 64">
  <defs>
    <style>
      .cls-1 {
        fill: #777;
        stroke-width: 0px;
      }
    </style>
  </defs>
  <path class="cls-1" d="m32,5.42c-14.68,0-26.58,11.9-26.58,26.58,0,14.68,11.9,26.58,26.58,26.58,14.68,0,26.58-11.9,26.58-26.58,0-14.68-11.9-26.58-26.58-26.58Zm13.77,11.94c1.08-.04,1.9.94,1.46,2.69l-5.27,24.82c-.37,1.76-1.43,2.19-2.91,1.37l-8.02-5.93c-1.88,1.83-3.57,3.47-3.86,3.75-.45.44-.8.8-1.61.8-1.04,0-.86-.39-1.22-1.38l-2.95-9.05-7.71-2.41c-1.71-.52-1.73-1.7.38-2.55l30.92-11.93c.26-.12.53-.18.78-.19Zm-4.91,5.28c-.23,0-.55.08-.87.28l-17.38,10.97,2.93,8.98.58-6.18,14.89-13.43c.41-.36.25-.61-.14-.61Z"/>
</svg>