<?xml version="1.0" encoding="UTF-8"?>
<svg id="Capa_1" data-name="Capa 1" xmlns="http://www.w3.org/2000/svg" viewBox="0 0 64 64">
  <defs>
    <style>
      .cls-1 {
        fill: #777;
        stroke-width: 0px;
      }
    </style>
  </defs>
  <path class="cls-1" d="m51.36,14.98c-.4-.21-.79-.43-1.17-.68-1.1-.73-2.11-1.59-3.01-2.56-2.24-2.57-3.08-5.17-3.39-6.99h.01c-.26-1.51-.15-2.49-.14-2.49h-10.22v39.5c0,.53,0,1.05-.02,1.57,0,.06,0,.12,0,.19,0,.03,0,.06,0,.09v.02c-.22,2.88-1.85,5.46-4.36,6.89-1.29.73-2.75,1.12-4.23,1.12-4.76,0-8.62-3.88-8.62-8.67s3.86-8.67,8.62-8.67c.9,0,1.8.14,2.65.42v-10.4c-5.25-.68-10.55.87-14.61,4.28-1.76,1.53-3.24,3.36-4.37,5.39-.43.74-2.06,3.73-2.26,8.58-.12,2.75.7,5.6,1.1,6.78v.02c.25.69,1.21,3.06,2.77,5.06,1.26,1.6,2.75,3.01,4.43,4.18v-.02l.02.02c4.95,3.36,10.43,3.14,10.43,3.14.95-.04,4.13,0,7.74-1.71,4.01-1.9,6.29-4.72,6.29-4.72,1.46-1.69,2.62-3.61,3.43-5.69.92-2.43,1.23-5.34,1.23-6.51v-20.96c.12.07,1.77,1.17,1.77,1.17,0,0,2.38,1.52,6.09,2.52,2.66.71,6.25.86,6.25.86v-10.14c-1.26.14-3.81-.26-6.42-1.56Z"/>
</svg>